HIERARCHY
ROOT hip
{
  OFFSET 0 0 0
  CHANNELS 6 Xposition Yposition Zposition Zrotation Yrotation Xrotation
  JOINT abdomen
  {
    OFFSET 0 20.6881 -0.73152
    CHANNELS 3 Zrotation Xrotation Yrotation
    JOINT chest
    {
      OFFSET 0 11.7043 -0.48768
      CHANNELS 3 Zrotation Xrotation Yrotation
      JOINT neck
      {
        OFFSET 0 22.1894 -2.19456
        CHANNELS 3 Zrotation Xrotation Yrotation
        JOINT head
        {
          OFFSET -0.24384 7.07133 1.2192
          CHANNELS 3 Zrotation Xrotation Yrotation
          JOINT leftEye
          {
            OFFSET 4.14528 8.04674 8.04672
            CHANNELS 3 Zrotation Xrotation Yrotation
            End Site
            {
              OFFSET 1 0 0
            }
          }
          JOINT rightEye
          {
            OFFSET -3.6576 8.04674 8.04672
            CHANNELS 3 Zrotation Xrotation Yrotation
            End Site
            {
              OFFSET 1 0 0
            }
          }
        }
      }
      JOINT rCollar
      {
        OFFSET -2.68224 19.2634 -4.8768
        CHANNELS 3 Zrotation Xrotation Yrotation
        JOINT rShldr
        {
          OFFSET -8.77824 -1.95073 1.46304
          CHANNELS 3 Zrotation Xrotation Yrotation
          JOINT rForeArm
          {
            OFFSET -28.1742 -1.7115 0.48768
            CHANNELS 3 Zrotation Xrotation Yrotation
            JOINT rHand
            {
              OFFSET -22.5879 0.773209 7.07136
              CHANNELS 3 Zrotation Xrotation Yrotation
              JOINT rThumb1
              {
                OFFSET -1.2192 -0.487915 3.41376
                CHANNELS 3 Zrotation Xrotation Yrotation
                JOINT rThumb2
                {
                  OFFSET -3.37035 -0.52449 3.41376
                  CHANNELS 3 Zrotation Xrotation Yrotation
                  End Site
                  {
                    OFFSET -1.78271 -1.18214 1.43049
                  }
                }
              }
              JOINT rIndex1
              {
                OFFSET -7.75947 0.938293 5.60832
                CHANNELS 3 Zrotation Xrotation Yrotation
                JOINT rIndex2
                {
                  OFFSET -2.54057 -0.884171 1.56538
                  CHANNELS 3 Zrotation Xrotation Yrotation
                  End Site
                  {
                    OFFSET -1.62519 -0.234802 1.16502
                  }
                }
              }
              JOINT rMid1
              {
                OFFSET -8.24714 1.18213 3.41376
                CHANNELS 3 Zrotation Xrotation Yrotation
                JOINT rMid2
                {
                  OFFSET -3.10165 -0.590103 1.0647
                  CHANNELS 3 Zrotation Xrotation Yrotation
                  End Site
                  {
                    OFFSET -2.48547 -0.328903 0.83742
                  }
                }
              }
              JOINT rRing1
              {
                OFFSET -8.82822 0.546677 1.51678
                CHANNELS 3 Zrotation Xrotation Yrotation
                JOINT rRing2
                {
                  OFFSET -2.60934 -0.819778 -0.0198488
                  CHANNELS 3 Zrotation Xrotation Yrotation
                  End Site
                  {
                    OFFSET -2.33842 -0.294052 0.168128
                  }
                }
              }
              JOINT rPinky1
              {
                OFFSET -8.27202 -0.0477905 -0.4584
                CHANNELS 3 Zrotation Xrotation Yrotation
                JOINT rPinky2
                {
                  OFFSET -1.82734 -0.647385 -0.700984
                  CHANNELS 3 Zrotation Xrotation Yrotation
                  End Site
                  {
                    OFFSET -1.69225 -0.51767 -0.607171
                  }
                }
              }
            }
          }
        }
      }
      JOINT lCollar
      {
        OFFSET 2.68224 19.2634 -4.8768
        CHANNELS 3 Zrotation Xrotation Yrotation
        JOINT lShldr
        {
          OFFSET 8.77824 -1.95073 1.46304
          CHANNELS 3 Zrotation Xrotation Yrotation
          JOINT lForeArm
          {
            OFFSET 28.1742 -1.7115 0.48768
            CHANNELS 3 Zrotation Xrotation Yrotation
            JOINT lHand
            {
              OFFSET 22.5879 0.773209 7.07136
              CHANNELS 3 Zrotation Xrotation Yrotation
              JOINT lThumb1
              {
                OFFSET 1.2192 -0.487915 3.41376
                CHANNELS 3 Zrotation Xrotation Yrotation
                JOINT lThumb2
                {
                  OFFSET 3.37035 -0.52449 3.41376
                  CHANNELS 3 Zrotation Xrotation Yrotation
                  End Site
                  {
                    OFFSET 1.78271 -1.18214 1.43049
                  }
                }
              }
              JOINT lIndex1
              {
                OFFSET 7.75947 0.938293 5.60832
                CHANNELS 3 Zrotation Xrotation Yrotation
                JOINT lIndex2
                {
                  OFFSET 2.54057 -0.884171 1.56538
                  CHANNELS 3 Zrotation Xrotation Yrotation
                  End Site
                  {
                    OFFSET 1.62519 -0.234802 1.16502
                  }
                }
              }
              JOINT lMid1
              {
                OFFSET 8.24714 1.18213 3.41376
                CHANNELS 3 Zrotation Xrotation Yrotation
                JOINT lMid2
                {
                  OFFSET 3.10165 -0.590103 1.0647
                  CHANNELS 3 Zrotation Xrotation Yrotation
                  End Site
                  {
                    OFFSET 2.48547 -0.328903 0.83742
                  }
                }
              }
              JOINT lRing1
              {
                OFFSET 8.82822 0.546677 1.51678
                CHANNELS 3 Zrotation Xrotation Yrotation
                JOINT lRing2
                {
                  OFFSET 2.60934 -0.819778 -0.0198488
                  CHANNELS 3 Zrotation Xrotation Yrotation
                  End Site
                  {
                    OFFSET 2.33842 -0.294052 0.168128
                  }
                }
              }
              JOINT lPinky1
              {
                OFFSET 8.27202 -0.0477905 -0.4584
                CHANNELS 3 Zrotation Xrotation Yrotation
                JOINT lPinky2
                {
                  OFFSET 1.82734 -0.647385 -0.700984
                  CHANNELS 3 Zrotation Xrotation Yrotation
                  End Site
                  {
                    OFFSET 1.69225 -0.51767 -0.607171
                  }
                }
              }
            }
          }
        }
      }
    }
  }
  JOINT rButtock
  {
    OFFSET -8.77824 4.35084 1.2192
    CHANNELS 3 Zrotation Xrotation Yrotation
    JOINT rThigh
    {
      OFFSET 0 -1.70687 -2.19456
      CHANNELS 3 Zrotation Xrotation Yrotation
      JOINT rShin
      {
        OFFSET 0 -36.8199 0.73152
        CHANNELS 3 Zrotation Xrotation Yrotation
        JOINT rFoot
        {
          OFFSET 0.73152 -45.1104 -5.12064
          CHANNELS 3 Zrotation Xrotation Yrotation
          End Site
          {
            OFFSET -1.1221 -3.69964 12.103
          }
        }
      }
    }
  }
  JOINT lButtock
  {
    OFFSET 8.77824 4.35084 1.2192
    CHANNELS 3 Zrotation Xrotation Yrotation
    JOINT lThigh
    {
      OFFSET 0 -1.70687 -2.19456
      CHANNELS 3 Zrotation Xrotation Yrotation
      JOINT lShin
      {
        OFFSET 0 -36.8199 0.73152
        CHANNELS 3 Zrotation Xrotation Yrotation
        JOINT lFoot
        {
          OFFSET -0.73152 -45.1104 -5.12064
          CHANNELS 3 Zrotation Xrotation Yrotation
          End Site
          {
            OFFSET 1.1221 -3.69964 12.103
          }
        }
      }
    }
  }
}
MOTION
Frames:	4
Frame Time:	0.00833333
42.2789 84.028 -9.84465 -2.0158 -38.8058 3.4905 8.00742 20.1213 9.45447 -6.15545 -5.96709 2.61355 4.05681 8.93507 4.05658 -30.0919 2.30045 7.59882 -0.0 0.0 0.0 -0.0 0.0 0.0 1.28364e-13 9.32377e-14 -3.1337e-13 33.4858 59.426 6.94292 -23.0168 -17.3647 46.6341 -0.021168 4.14944 0.584198 -1.20854e-09 -2.1954e-09 2.59558e-09 -2.08473e-09 -3.80726e-09 4.4953e-09 -1.20853e-09 -2.1954e-09 2.59556e-09 7.73091 5.47488 0.417314 -1.20854e-09 -2.1954e-09 2.59558e-09 2.90554 0.965183 0.102902 -1.20853e-09 -2.1954e-09 2.59557e-09 10.2786 0.731801 0.0259123 -1.20854e-09 -2.1954e-09 2.59557e-09 2.22167 -0.733487 -0.20892 1.28199e-13 9.32838e-14 -3.13607e-13 -72.4671 49.6479 7.17282 18.6843 -11.4418 -35.5737 0.795342 -24.4696 3.66699 -9.97358e-10 8.29426e-11 5.8231e-10 -1.73746e-09 1.24463e-10 9.90673e-10 -9.97363e-10 8.29475e-11 5.82317e-10 -7.73091 5.47488 -0.417314 -9.97351e-10 8.29467e-11 5.82301e-10 -2.90554 0.965183 -0.102902 -9.97359e-10 8.29488e-11 5.82304e-10 -10.2786 0.731801 -0.0259123 -9.97358e-10 8.29503e-11 5.82286e-10 -2.22167 -0.733487 0.20892 -2.03217e-16 0.0 -3.88251e-19 -10.4256 -21.0517 -15.626 -0.376058 41.3363 0.806657 -10.6369 -22.5163 -20.0647 2.03217e-16 0.0 3.88251e-19 7.67014 -25.1167 15.1739 0.229507 38.2849 -0.580155 0.514267 -12.4995 -0.273147
42.4316 83.9233 -9.97574 -1.9108 -38.7103 3.5341 8.1291 20.555 9.5727 -6.17602 -5.95743 2.66112 4.06658 8.94309 3.9835 -30.1894 2.19776 7.436 -0.0 0.0 0.0 -0.0 0.0 0.0 1.13006e-13 1.46278e-13 -1.71601e-13 32.551 59.1923 7.72153 -23.0632 -17.4421 46.7694 -0.0206506 4.09895 0.577064 -6.8742e-10 -1.52392e-09 1.6428e-09 -1.18646e-09 -2.6394e-09 2.84289e-09 -6.87407e-10 -1.52391e-09 1.64278e-09 7.73091 5.47488 0.417314 -6.87423e-10 -1.52391e-09 1.64279e-09 2.90554 0.965183 0.102902 -6.87412e-10 -1.52391e-09 1.64279e-09 10.2786 0.731801 0.0259123 -6.87422e-10 -1.52391e-09 1.64279e-09 2.22167 -0.733487 -0.20892 1.12821e-13 1.46332e-13 -1.71849e-13 -72.8295 49.5748 7.48546 18.7953 -11.568 -35.8298 0.816149 -24.7615 3.71677 -1.29477e-09 5.10476e-12 9.01767e-10 -2.25348e-09 -1.49041e-11 1.53714e-09 -1.29477e-09 5.10916e-12 9.0177e-10 -7.73091 5.47488 -0.417314 -1.29476e-09 5.10976e-12 9.01757e-10 -2.90554 0.965183 -0.102902 -1.29476e-09 5.11105e-12 9.01758e-10 -10.2786 0.731801 -0.0259123 -1.29476e-09 5.11155e-12 9.01738e-10 -2.22167 -0.733487 0.20892 -2.03217e-16 0.0 -3.88251e-19 -10.734 -21.5188 -15.9997 -0.386325 41.7852 0.811384 -10.5531 -22.4532 -19.9398 2.03217e-16 0.0 3.88251e-19 7.68432 -25.5892 15.2908 0.237354 38.6291 -0.591279 0.473553 -12.481 -0.425513
42.5851 83.8157 -10.1076 -1.801 -38.6185 3.5745 8.25866 21.0023 9.67098 -6.1774 -5.92907 2.7054 4.06394 8.93675 3.91506 -30.3027 2.09231 7.28191 -0.0 0.0 0.0 -0.0 0.0 0.0 3.74436e-14 1.11157e-13 1.18085e-13 31.5329 58.9632 8.57817 -23.1019 -17.507 46.883 -0.0199176 4.02701 0.566901 -1.48011e-10 1.60135e-10 1.89007e-11 -2.57161e-10 2.76928e-10 3.28135e-11 -1.48002e-10 1.60143e-10 1.88852e-11 7.73091 5.47488 0.417314 -1.48014e-10 1.60142e-10 1.88969e-11 2.90554 0.965183 0.102902 -1.48004e-10 1.60143e-10 1.88959e-11 10.2786 0.731801 0.0259123 -1.48015e-10 1.60141e-10 1.88972e-11 2.22167 -0.733487 -0.20892 3.72542e-14 1.11208e-13 1.1783e-13 -73.1949 49.5272 7.76889 18.9049 -11.6937 -36.0831 0.83618 -25.0397 3.76439 -1.38184e-09 -1.80347e-10 8.09383e-10 -2.40179e-09 -3.36346e-10 1.37397e-09 -1.38184e-09 -1.80345e-10 8.09387e-10 -7.73091 5.47488 -0.417314 -1.38183e-09 -1.80344e-10 8.09375e-10 -2.90554 0.965183 -0.102902 -1.38184e-09 -1.80344e-10 8.09376e-10 -10.2786 0.731801 -0.0259123 -1.38184e-09 -1.80344e-10 8.09357e-10 -2.22167 -0.733487 0.20892 -2.03217e-16 0.0 -3.88251e-19 -11.0492 -21.9779 -16.3861 -0.396887 42.2343 0.816208 -10.4637 -22.3849 -19.8069 2.03217e-16 0.0 3.88251e-19 7.69973 -26.0575 15.4014 0.245378 38.9797 -0.602842 0.435308 -12.4713 -0.567777
42.7425 83.7037 -10.2418 -1.699 -38.5264 3.622 8.39153 21.4596 9.75397 -6.16467 -5.88695 2.74705 4.05324 8.92072 3.84886 -30.4254 1.98698 7.13215 -0.0 0.0 0.0 -0.0 0.0 0.0 -7.97567e-14 2.33367e-14 5.16207e-13 30.4652 58.7273 9.48704 -23.134 -17.5609 46.9765 -0.0190437 3.93863 0.554419 4.64961e-10 2.58366e-09 -2.14855e-09 7.98658e-10 4.47113e-09 -3.71594e-09 4.64963e-10 2.58367e-09 -2.14856e-09 7.73091 5.47488 0.417314 4.64961e-10 2.58367e-09 -2.14855e-09 2.90554 0.965183 0.102902 4.64966e-10 2.58367e-09 -2.14855e-09 10.2786 0.731801 0.0259123 4.64956e-10 2.58367e-09 -2.14855e-09 2.22167 -0.733487 -0.20892 -7.99412e-14 2.33766e-14 5.15946e-13 -73.5634 49.5075 8.03356 19.0142 -11.8202 -36.3371 0.856512 -25.3183 3.81228 -1.34199e-09 -4.38268e-10 4.74565e-10 -2.32806e-09 -7.80605e-10 7.93009e-10 -1.342e-09 -4.3827e-10 4.74572e-10 -7.73091 5.47488 -0.417314 -1.34199e-09 -4.38268e-10 4.7456e-10 -2.90554 0.965183 -0.102902 -1.342e-09 -4.3827e-10 4.74562e-10 -10.2786 0.731801 -0.0259123 -1.34199e-09 -4.38269e-10 4.74547e-10 -2.22167 -0.733487 0.20892 -2.03217e-16 0.0 -3.88251e-19 -11.374 -22.4345 -16.785 -0.407802 42.687 0.82123 -10.3697 -22.3129 -19.6668 2.03217e-16 0.0 3.88251e-19 7.71608 -26.5259 15.5095 0.253622 39.3371 -0.614836 0.398396 -12.4682 -0.704133
